# xmcd CD database file
#
# Track frame offsets:
#	150
#	14647
#	27675
#	41170
#	54682
#	69775
#	83838
#	96233
#	109705
#	121830
#	137990
#	153525
#	161858
#	175315
#	187093
#	205338
#	219028
#	234483
#	248513
#	265240
#	272290
#	283945
#	298813
#	312790
#
# Disc length: 4358 seconds
#
# Revision: 0
# Processed by: cddbd v1.5.2PL0 Copyright (c) Steve Scherf et al.
# Submitted via: CDex 1.51
#
DISCID=67110418
DTITLE=Various Artist - Wie man mit Jazz die Herzen der Frauen gewinnt [CD2] - Das schöne Leben
DYEAR=1999
DGENRE=Jazz
TTITLE0=Lotus Blossom, Julia Lee 1947
TTITLE1=Maelstrom, Chu Berry 1937
TTITLE2=The Blues, Artie Shaw 1937
TTITLE3=Summertime, Nillie Holiday, 1936
TTITLE4=Black And Tan Fantasy, Duke Ellington 1927
TTITLE5=Your Feet's Too Big, Fats Waller 1939
TTITLE6=Jesse, Harry James 1939
TTITLE7=Funny Feathers Blues, Victoria Spivey 1929
TTITLE8=Jazznocrazy, James Kok 1935
TTITLE9=Linden Blues, Rex Stewart 1948
TTITLE10=Trouble, Trouble, Betty Roché 1944
TTITLE11=Moments Musicaux, Franz Schubert 1828
TTITLE12=My Man Rocks Me, Trixie Smith 1938
TTITLE13=Krum Elbow Blues, Johnny Hodges, 1938
TTITLE14=Comes Love, Billie Holiday 1957
TTITLE15=Blues (Naughtiy Sweetie), Jimmie Noone 1928
TTITLE16=After You've Gone, Louis Armstrong 1929
TTITLE17=After You've Gone, Helen Savage 1929
TTITLE18=St. James Infirmary, King Oliver 1930
TTITLE19=Agitata Infido Flatu, Antonio Vivaldi 1716
TTITLE20=Some Of These Days, Coleman Hawkins 1935
TTITLE21=Lover Come Back To me, Mildred Bailey 1938
TTITLE22=Lover Come Back To Me, Coleman Hawkins 1943
TTITLE23=September In The Rain, Peggy Lee, 40er Jahre
EXTD=YEAR: 1999
EXTT0=
EXTT1=
EXTT2=
EXTT3=
EXTT4=
EXTT5=
EXTT6=
EXTT7=
EXTT8=
EXTT9=
EXTT10=
EXTT11=
EXTT12=
EXTT13=
EXTT14=
EXTT15=
EXTT16=
EXTT17=
EXTT18=
EXTT19=
EXTT20=
EXTT21=
EXTT22=
EXTT23=
PLAYORDER=
